<?xml version="1.0" encoding="UTF-8"?><svg id="Ebene_1" xmlns="http://www.w3.org/2000/svg" viewBox="0 0 759.37 941.83"><g id="Neckar-Odenwald"><polygon id="polygon12" points="523.73 95.11 522.99 95.85 517.98 107.16 525.21 113.65 498.89 132.18 506.67 150.72 495.18 166.3 490.92 172.79 486.1 163.52 477.38 169.08 479.61 182.61 461.81 186.32 456.8 190.58 457.55 201.15 467.56 209.12 468.85 218.21 489.62 227.48 499.44 238.23 507.42 236.75 503.15 241.75 505.93 256.77 514.46 266.59 535.78 268.08 535.78 271.6 552.28 271.04 553.58 246.01 557.84 232.48 569.34 234.71 577.12 236 593.44 254.54 602.71 248.98 606.23 231.74 614.2 232.48 617.72 220.43 626.99 213.94 624.77 203.38 633.3 192.62 654.8 209.68 664.63 208.38 674.64 212.64 685.39 208.94 686.69 191.14 695.22 186.88 700.22 194.85 714.5 201.89 743.6 201.15 748.61 182.61 743.05 173.34 758.62 166.3 752.32 157.03 730.81 150.72 716.72 157.77 715.98 128.66 709.49 113.65 713.02 115.13 731.55 95.85 721.54 90.1 719.5 76.57 711.72 54.51 718.02 44.49 725.81 48.2 735.82 30.96 731.55 11.87 718.02 18.91 701.71 16.13 690.4 6.86 672.6 1.11 676.12 4.64 670.38 13.91 659.62 16.13 652.58 6.12 641.82 14.65 626.99 7.6 624.03 6.86 616.24 18.17 609.2 21.14 603.45 49.5 599.18 49.5 594.92 58.03 590.66 58.03 587.88 59.51 574.34 63.03 533 59.51 531.52 71.01 525.21 82.31 538.01 90.1 542.27 102.15 533.74 106.42 523.73 95.11" fill="#e6e6e6" stroke="#ccc" stroke-miterlimit="10"/><polygon id="polygon14" points="523.73 95.11 522.99 95.85 517.98 107.16 525.21 113.65 498.89 132.18 506.67 150.72 495.18 166.3 490.92 172.79 486.1 163.52 477.38 169.08 479.61 182.61 461.81 186.32 456.8 190.58 457.55 201.15 467.56 209.12 468.85 218.21 489.62 227.48 499.44 238.23 507.42 236.75 503.15 241.75 505.93 256.77 514.46 266.59 535.78 268.08 535.78 271.6 552.28 271.04 553.58 246.01 557.84 232.48 569.34 234.71 577.12 236 593.44 254.54 602.71 248.98 606.23 231.74 614.2 232.48 617.72 220.43 626.99 213.94 624.77 203.38 633.3 192.62 654.8 209.68 664.63 208.38 674.64 212.64 685.39 208.94 686.69 191.14 695.22 186.88 700.22 194.85 714.5 201.89 743.6 201.15 748.61 182.61 743.05 173.34 758.62 166.3 752.32 157.03 730.81 150.72 716.72 157.77 715.98 128.66 709.49 113.65 713.02 115.13 731.55 95.85 721.54 90.1 719.5 76.57 711.72 54.51 718.02 44.49 725.81 48.2 735.82 30.96 731.55 11.87 718.02 18.91 701.71 16.13 690.4 6.86 672.6 1.11 676.12 4.64 670.38 13.91 659.62 16.13 652.58 6.12 641.82 14.65 626.99 7.6 624.03 6.86 616.24 18.17 609.2 21.14 603.45 49.5 599.18 49.5 594.92 58.03 590.66 58.03 587.88 59.51 574.34 63.03 533 59.51 531.52 71.01 525.21 82.31 538.01 90.1 542.27 102.15 533.74 106.42 523.73 95.11" fill="#e6e6e6" stroke="#ccc" stroke-miterlimit="3.9"/></g><g id="Rhein-Neckar"><g id="g18"><polygon id="polygon20" points="523.17 95.85 515.2 92.33 512.42 97.33 504.45 114.39 492.4 114.39 479.61 105.86 471.82 111.42 463.85 108.64 466.82 115.68 454.77 132.93 463.29 143.49 451.06 152.02 441.23 150.72 437.52 164.81 431.96 170.56 416.95 184.84 401.37 183.35 394.88 173.34 410.46 161.29 409.16 142.01 405.64 137.75 418.43 123.66 424.73 137.19 440.49 122.92 440.49 110.12 421.21 111.42 409.16 115.68 404.89 110.86 406.19 95.11 397.66 95.85 391.36 101.6 383.57 98.63 380.05 100.85 351.5 86.58 353.54 78.05 347.24 72.3 343.72 50.24 350.76 41.71 348.54 24.66 305.15 33.19 303.67 35.97 301.63 37.45 303.12 45.98 307.38 44.49 314.42 78.05 296.63 95.85 299.41 107.9 291.62 114.39 283.83 115.68 279.57 124.95 297.37 137.19 295.88 160.55 308.12 162.77 317.2 149.98 326.47 153.5 370.04 147.76 368.56 140.71 372.82 139.97 380.61 142.75 379.31 154.99 391.36 173.34 379.87 195.4 373.56 196.14 370.6 199.11 360.77 201.89 360.03 208.38 353.54 211.16 335.74 207.64 332.22 213.2 324.44 200.41 317.95 212.64 303.67 202.63 306.64 196.14 311.64 194.11 321.47 189.1 320.17 175.57 318.69 169.08 308.68 175.57 291.62 168.52 290.32 167.78 279.57 167.04 278.09 170.56 257.51 170.56 256.77 172.79 256.77 174.08 256.77 175.57 256.77 177.05 242.49 186.88 241.75 193.36 246.76 196.14 258.25 186.32 254.73 208.38 243.98 219.69 237.49 225.44 236.19 236 249.72 243.98 251.02 254.54 276.05 273.82 278.09 269.56 284.58 271.6 290.32 274.57 288.1 279.57 300.89 285.87 308.12 290.14 322.95 290.88 340.75 298.67 342.97 298.67 363.55 298.67 370.6 315.72 384.13 320.73 397.66 318.69 399.89 323.69 419.73 337.23 434 330 433.26 318.69 463.29 311.46 466.07 305.9 484.61 286.62 482.39 275.86 488.14 278.83 503.15 267.33 493.88 253.25 505.93 256.77 503.15 241.75 507.42 236.75 499.44 238.23 489.62 227.48 468.85 218.21 467.56 209.12 457.55 201.15 456.8 190.58 461.81 186.32 479.61 182.61 477.38 169.08 486.1 163.52 490.92 172.79 495.18 166.3 506.67 150.72 498.89 132.18 525.21 113.65 517.98 107.16 522.99 95.85 523.17 95.85" fill="#e6e6e6" stroke="#ccc" stroke-miterlimit="10"/><polygon id="polygon22" points="523.17 95.85 515.2 92.33 512.42 97.33 504.45 114.39 492.4 114.39 479.61 105.86 471.82 111.42 463.85 108.64 466.82 115.68 454.77 132.93 463.29 143.49 451.06 152.02 441.23 150.72 437.52 164.81 431.96 170.56 416.95 184.84 401.37 183.35 394.88 173.34 410.46 161.29 409.16 142.01 405.64 137.75 418.43 123.66 424.73 137.19 440.49 122.92 440.49 110.12 421.21 111.42 409.16 115.68 404.89 110.86 406.19 95.11 397.66 95.85 391.36 101.6 383.57 98.63 380.05 100.85 351.5 86.58 353.54 78.05 347.24 72.3 343.72 50.24 350.76 41.71 348.54 24.66 305.15 33.19 303.67 35.97 301.63 37.45 303.12 45.98 307.38 44.49 314.42 78.05 296.63 95.85 299.41 107.9 291.62 114.39 283.83 115.68 279.57 124.95 297.37 137.19 295.88 160.55 308.12 162.77 317.2 149.98 326.47 153.5 370.04 147.76 368.56 140.71 372.82 139.97 380.61 142.75 379.31 154.99 391.36 173.34 379.87 195.4 373.56 196.14 370.6 199.11 360.77 201.89 360.03 208.38 353.54 211.16 335.74 207.64 332.22 213.2 324.44 200.41 317.95 212.64 303.67 202.63 306.64 196.14 311.64 194.11 321.47 189.1 320.17 175.57 318.69 169.08 308.68 175.57 291.62 168.52 290.32 167.78 279.57 167.04 278.09 170.56 257.51 170.56 256.77 172.79 256.77 174.08 256.77 175.57 256.77 177.05 242.49 186.88 241.75 193.36 246.76 196.14 258.25 186.32 254.73 208.38 243.98 219.69 237.49 225.44 236.19 236 249.72 243.98 251.02 254.54 276.05 273.82 278.09 269.56 284.58 271.6 290.32 274.57 288.1 279.57 300.89 285.87 308.12 290.14 322.95 290.88 340.75 298.67 342.97 298.67 363.55 298.67 370.6 315.72 384.13 320.73 397.66 318.69 399.89 323.69 419.73 337.23 434 330 433.26 318.69 463.29 311.46 466.07 305.9 484.61 286.62 482.39 275.86 488.14 278.83 503.15 267.33 493.88 253.25 505.93 256.77 503.15 241.75 507.42 236.75 499.44 238.23 489.62 227.48 468.85 218.21 467.56 209.12 457.55 201.15 456.8 190.58 461.81 186.32 479.61 182.61 477.38 169.08 486.1 163.52 490.92 172.79 495.18 166.3 506.67 150.72 498.89 132.18 525.21 113.65 517.98 107.16 522.99 95.85 523.17 95.85" fill="#e6e6e6" stroke="#ccc" stroke-miterlimit="3.9"/></g><g id="g24"><polygon id="polygon26" points="531.7 71.01 519.47 60.99 517.98 69.52 525.21 82.31 531.7 71.01" fill="#e6e6e6" stroke="#ccc" stroke-miterlimit="10"/><polygon id="polygon28" points="531.7 71.01 519.47 60.99 517.98 69.52 525.21 82.31 531.7 71.01" fill="#e6e6e6" stroke="#ccc" stroke-miterlimit="3.9"/></g></g><g id="Mannheim"><polygon id="polygon32" points="296.63 95.85 299.41 107.9 291.62 114.39 283.83 115.68 279.57 124.95 297.37 137.19 295.88 160.55 291.62 168.52 290.32 167.78 279.57 167.04 278.09 170.56 257.51 170.56 261.77 152.02 246.76 147.76 232.48 142.2 233.96 113.65 225.44 79.53 221.91 68.78 225.44 58.03 226.18 50.24 244.72 46.72 258.25 58.03 278.83 90.1 296.63 95.85" fill="#e6e6e6" stroke="#ccc" stroke-miterlimit="10"/><polygon id="polygon34" points="296.63 95.85 299.41 107.9 291.62 114.39 283.83 115.68 279.57 124.95 297.37 137.19 295.88 160.55 291.62 168.52 290.32 167.78 279.57 167.04 278.09 170.56 257.51 170.56 261.77 152.02 246.76 147.76 232.48 142.2 233.96 113.65 225.44 79.53 221.91 68.78 225.44 58.03 226.18 50.24 244.72 46.72 258.25 58.03 278.83 90.1 296.63 95.85" fill="#e6e6e6" stroke="#ccc" stroke-miterlimit="3.9"/></g><g id="Heidelberg"><polygon id="polygon38" points="291.62 168.52 308.68 175.57 318.69 169.08 320.17 175.57 321.47 189.1 311.64 194.11 306.64 196.14 303.67 202.63 317.95 212.64 324.44 200.41 332.22 213.2 335.74 207.64 353.54 211.16 360.03 208.38 360.77 201.89 370.6 199.11 373.56 196.14 379.87 195.4 391.36 173.34 379.31 154.99 380.61 142.75 372.82 139.97 368.56 140.71 370.04 147.76 326.47 153.5 317.2 149.98 308.12 162.77 295.88 160.55 291.62 168.52" fill="#e6e6e6" stroke="#ccc" stroke-miterlimit="10"/><polygon id="polygon40" points="291.62 168.52 308.68 175.57 318.69 169.08 320.17 175.57 321.47 189.1 311.64 194.11 306.64 196.14 303.67 202.63 317.95 212.64 324.44 200.41 332.22 213.2 335.74 207.64 353.54 211.16 360.03 208.38 360.77 201.89 370.6 199.11 373.56 196.14 379.87 195.4 391.36 173.34 379.31 154.99 380.61 142.75 372.82 139.97 368.56 140.71 370.04 147.76 326.47 153.5 317.2 149.98 308.12 162.77 295.88 160.55 291.62 168.52" fill="#e6e6e6" stroke="#ccc" stroke-miterlimit="3.9"/></g><g id="Freudenstadt"><polygon id="polygon216" points="353.54 889.51 332.22 883.2 325.92 873.93 293.85 875.97 278.83 871.15 274.56 872.45 265.3 868.93 251.02 868.93 253.99 880.98 236.19 884.5 243.98 901.74 229.7 908.79 243.23 923.06 240.45 931.59 224.69 932.33 216.91 940.86 211.9 925.84 198.37 925.84 178.53 913.79 179.09 886.73 165 879.68 152.76 906.01 150.72 906.01 147.2 899.52 127.18 873.19 120.88 868.93 130.7 860.4 141.45 815.54 141.45 814.8 137.93 807.01 126.44 806.27 116.61 795.7 114.39 760.1 125.7 746.57 112.35 729.33 119.39 728.77 136.45 738.6 162.77 740.08 180.57 730.07 193.36 718.76 196.33 706.71 205.6 705.23 226.18 721.54 231.93 729.52 263.26 742.31 264.55 742.31 275.31 755.84 281.61 750.84 282.35 758.62 273.82 767.89 285.32 772.9 293.85 769.93 298.85 774.94 305.15 777.9 292.36 797 308.12 804.23 325.92 797.74 334.45 815.54 353.54 814.24 363.55 802.74 392.1 826.29 394.88 831.29 392.1 833.33 369.3 848.35 370.6 863.18 367.82 867.45 363.55 885.99 353.54 889.51" fill="#e6e6e6" stroke="#ccc" stroke-miterlimit="10"/><polygon id="polygon218" points="353.54 889.51 332.22 883.2 325.92 873.93 293.85 875.97 278.83 871.15 274.56 872.45 265.3 868.93 251.02 868.93 253.99 880.98 236.19 884.5 243.98 901.74 229.7 908.79 243.23 923.06 240.45 931.59 224.69 932.33 216.91 940.86 211.9 925.84 198.37 925.84 178.53 913.79 179.09 886.73 165 879.68 152.76 906.01 150.72 906.01 147.2 899.52 127.18 873.19 120.88 868.93 130.7 860.4 141.45 815.54 141.45 814.8 137.93 807.01 126.44 806.27 116.61 795.7 114.39 760.1 125.7 746.57 112.35 729.33 119.39 728.77 136.45 738.6 162.77 740.08 180.57 730.07 193.36 718.76 196.33 706.71 205.6 705.23 226.18 721.54 231.93 729.52 263.26 742.31 264.55 742.31 275.31 755.84 281.61 750.84 282.35 758.62 273.82 767.89 285.32 772.9 293.85 769.93 298.85 774.94 305.15 777.9 292.36 797 308.12 804.23 325.92 797.74 334.45 815.54 353.54 814.24 363.55 802.74 392.1 826.29 394.88 831.29 392.1 833.33 369.3 848.35 370.6 863.18 367.82 867.45 363.55 885.99 353.54 889.51" fill="#e6e6e6" stroke="#ccc" stroke-miterlimit="3.9"/></g><g id="Pforzheim"><polygon id="polygon222" points="340.75 570.63 350.76 578.42 373.56 572.86 377.09 562.11 392.1 554.32 384.87 548.57 384.87 536.52 377.83 537.26 368.56 510.94 354.28 506.67 350.76 512.24 342.97 510.94 334.45 520.76 326.47 520.76 319.43 512.98 309.42 519.47 311.64 527.25 316.65 531.52 318.69 545.79 314.42 555.8 308.12 557.84 322.95 572.12 337.97 572.12 340.75 570.63" fill="#e6e6e6" stroke="#ccc" stroke-miterlimit="10"/><polygon id="polygon224" points="340.75 570.63 350.76 578.42 373.56 572.86 377.09 562.11 392.1 554.32 384.87 548.57 384.87 536.52 377.83 537.26 368.56 510.94 354.28 506.67 350.76 512.24 342.97 510.94 334.45 520.76 326.47 520.76 319.43 512.98 309.42 519.47 311.64 527.25 316.65 531.52 318.69 545.79 314.42 555.8 308.12 557.84 322.95 572.12 337.97 572.12 340.75 570.63" fill="#e6e6e6" stroke="#ccc" stroke-miterlimit="3.9"/></g><g id="Enzkreis"><polygon id="polygon228" points="246.76 580.65 252.5 584.91 261.03 587.69 257.51 596.96 263.26 605.49 272.53 601.22 276.79 588.43 289.58 584.17 294.59 590.66 304.41 576.38 320.17 587.69 340.01 584.17 337.97 572.12 322.95 572.12 308.12 557.84 314.42 555.8 318.69 545.79 316.65 531.52 311.64 527.25 309.42 519.47 319.43 512.98 326.47 520.76 334.45 520.76 342.97 510.94 350.76 512.24 354.28 506.67 368.56 510.94 377.83 537.26 384.87 536.52 384.87 548.57 392.1 554.32 377.09 562.11 373.56 572.86 350.76 578.42 340.75 570.63 355.02 598.44 360.77 594.92 372.82 612.72 389.14 612.72 394.88 606.97 406.93 597.7 411.94 602.71 427.7 595.66 431.22 599.19 433.26 596.96 429 592.7 434 587.13 431.22 580.65 421.21 586.95 426.96 577.12 420.47 573.6 431.22 565.63 434.74 556.36 446.79 552.1 440.49 525.77 437.52 521.51 442.53 519.47 434.74 512.24 437.52 498.15 446.79 502.41 456.06 500.19 455.32 488.14 437.52 444.75 437.52 444.01 424.73 434.74 425.47 418.24 406.93 416.2 405.64 432.52 372.08 426.22 359.29 439.75 359.29 458.84 360.03 461.81 350.02 466.07 330.74 461.81 325.92 452.54 314.42 463.85 295.88 466.82 293.1 466.07 286.62 465.33 279.57 483.13 269.56 488.88 275.31 512.24 260.29 525.77 263.26 540.79 251.02 554.32 236.19 562.85 246.76 580.65" fill="#e6e6e6" stroke="#ccc" stroke-miterlimit="10"/><polygon id="polygon230" points="246.76 580.65 252.5 584.91 261.03 587.69 257.51 596.96 263.26 605.49 272.53 601.22 276.79 588.43 289.58 584.17 294.59 590.66 304.41 576.38 320.17 587.69 340.01 584.17 337.97 572.12 322.95 572.12 308.12 557.84 314.42 555.8 318.69 545.79 316.65 531.52 311.64 527.25 309.42 519.47 319.43 512.98 326.47 520.76 334.45 520.76 342.97 510.94 350.76 512.24 354.28 506.67 368.56 510.94 377.83 537.26 384.87 536.52 384.87 548.57 392.1 554.32 377.09 562.11 373.56 572.86 350.76 578.42 340.75 570.63 355.02 598.44 360.77 594.92 372.82 612.72 389.14 612.72 394.88 606.97 406.93 597.7 411.94 602.71 427.7 595.66 431.22 599.19 433.26 596.96 429 592.7 434 587.13 431.22 580.65 421.21 586.95 426.96 577.12 420.47 573.6 431.22 565.63 434.74 556.36 446.79 552.1 440.49 525.77 437.52 521.51 442.53 519.47 434.74 512.24 437.52 498.15 446.79 502.41 456.06 500.19 455.32 488.14 437.52 444.75 437.52 444.01 424.73 434.74 425.47 418.24 406.93 416.2 405.64 432.52 372.08 426.22 359.29 439.75 359.29 458.84 360.03 461.81 350.02 466.07 330.74 461.81 325.92 452.54 314.42 463.85 295.88 466.82 293.1 466.07 286.62 465.33 279.57 483.13 269.56 488.88 275.31 512.24 260.29 525.77 263.26 540.79 251.02 554.32 236.19 562.85 246.76 580.65" fill="#e6e6e6" stroke="#ccc" stroke-miterlimit="3.9"/></g><g id="Calw"><polygon id="polygon234" points="246.76 580.65 252.5 584.91 261.03 587.69 257.51 596.96 263.26 605.49 272.53 601.22 276.79 588.43 289.58 584.17 294.59 590.66 304.41 576.38 320.17 587.69 340.01 584.17 337.97 572.12 340.75 570.63 355.02 598.44 360.77 594.92 372.82 612.72 389.14 612.72 387.1 616.98 395.63 623.29 403.41 629.03 399.89 641.83 411.94 643.31 421.95 651.09 411.94 662.59 414.91 666.85 394.88 688.17 394.88 691.7 384.87 695.22 383.57 711.53 382.83 740.08 361.51 732.3 360.77 738.6 365.78 766.41 370.6 771.41 365.04 776.42 370.04 789.95 363.55 802.74 353.54 814.24 334.45 815.54 325.92 797.74 308.12 804.23 292.36 797 305.15 777.9 298.85 774.94 293.85 769.93 285.32 772.9 273.82 767.89 282.35 758.62 281.61 750.84 275.31 755.84 264.55 742.31 263.26 742.31 231.93 729.52 226.18 721.54 205.6 705.23 215.43 702.45 216.17 690.95 222.66 687.43 223.95 673.16 237.49 647.57 241.75 624.77 233.22 619.02 213.39 633.3 219.13 614.02 215.43 599.93 199.85 591.4 208.38 585.65 205.6 577.87 194.85 572.12 196.33 570.63 208.38 573.6 211.9 569.34 220.43 580.65 246.76 580.65" fill="#e6e6e6" stroke="#ccc" stroke-miterlimit="10"/><polygon id="polygon236" points="246.76 580.65 252.5 584.91 261.03 587.69 257.51 596.96 263.26 605.49 272.53 601.22 276.79 588.43 289.58 584.17 294.59 590.66 304.41 576.38 320.17 587.69 340.01 584.17 337.97 572.12 340.75 570.63 355.02 598.44 360.77 594.92 372.82 612.72 389.14 612.72 387.1 616.98 395.63 623.29 403.41 629.03 399.89 641.83 411.94 643.31 421.95 651.09 411.94 662.59 414.91 666.85 394.88 688.17 394.88 691.7 384.87 695.22 383.57 711.53 382.83 740.08 361.51 732.3 360.77 738.6 365.78 766.41 370.6 771.41 365.04 776.42 370.04 789.95 363.55 802.74 353.54 814.24 334.45 815.54 325.92 797.74 308.12 804.23 292.36 797 305.15 777.9 298.85 774.94 293.85 769.93 285.32 772.9 273.82 767.89 282.35 758.62 281.61 750.84 275.31 755.84 264.55 742.31 263.26 742.31 231.93 729.52 226.18 721.54 205.6 705.23 215.43 702.45 216.17 690.95 222.66 687.43 223.95 673.16 237.49 647.57 241.75 624.77 233.22 619.02 213.39 633.3 219.13 614.02 215.43 599.93 199.85 591.4 208.38 585.65 205.6 577.87 194.85 572.12 196.33 570.63 208.38 573.6 211.9 569.34 220.43 580.65 246.76 580.65" fill="#e6e6e6" stroke="#ccc" stroke-miterlimit="3.9"/></g><g id="LK_Karlsruhe"><path id="path240" d="M269.56,488.88l10.01-5.75,7.04-17.8,6.49.74,2.78.74,18.54-2.78,11.31-11.31,5.01,9.27,19.28,4.26,10.01-4.26-.74-2.78v-19.28l12.79-13.53,33.37,6.49,1.48-16.31,18.54,2.22.74-15.02,6.49-.74-.74-19.28-7.79-15.57-20.02,4.26-.74-1.48,7.04-15.57-10.75-5.01,3.52-22.06-3.52-4.26-2.04-5.01-13.53,2.22-13.53-5.01-7.04-17.06h-22.8l-17.8-7.79-15.02-.74-7.04-4.26-12.79-6.49,2.22-5.01-5.75-2.78-6.49-2.22-2.22,4.26-24.84-19.28-9.27,5.01-10.01,10.75-15.02,11.31-7.04,5.75,2.78,15.02-11.31,23.54-2.22,3.52-3.52,15.57.74,9.27-2.22,10.75-3.52,19.28-5.01,8.53-4.26,6.49,2.78,10.75,21.32-2.78,13.53-14.28,5.75-.74-3.52,14.28,9.27,15.02,10.01,7.04,7.04-12.79,15.02,19.28v11.31l-10.01,15.02,3.52,14.28,13.53,13.53v-.74h.19ZM269.56,488.14l-23.54,8.53-18.54-2.22.74-11.31-26.33,1.48-11.31-12.79-15.57-10.01-22.06,3.52-2.22-4.26-7.04,5.75-1.48,15.02,5.75,4.26,18.54,3.52,18.54,10.75-1.48,5.01-24.84,9.27-4.26,18.54,7.04,16.31,23.54,13.53,22.06-10.01,5.01,16.31,8.53,11.31h26.33l-10.75-17.8,15.02-8.53,12.05-13.53-2.78-15.02,15.02-13.53-5.75-24.29h0l-.19.19Z" fill="#e6e6e6" fill-rule="evenodd" stroke="#ccc" stroke-miterlimit="10"/><path id="path242" d="M269.56,488.88l10.01-5.75,7.04-17.8,6.49.74,2.78.74,18.54-2.78,11.31-11.31,5.01,9.27,19.28,4.26,10.01-4.26-.74-2.78v-19.28l12.79-13.53,33.37,6.49,1.48-16.31,18.54,2.22.74-15.02,6.49-.74-.74-19.28-7.79-15.57-20.02,4.26-.74-1.48,7.04-15.57-10.75-5.01,3.52-22.06-3.52-4.26-2.04-5.01-13.53,2.22-13.53-5.01-7.04-17.06h-22.8l-17.8-7.79-15.02-.74-7.04-4.26-12.79-6.49,2.22-5.01-5.75-2.78-6.49-2.22-2.22,4.26-24.84-19.28-9.27,5.01-10.01,10.75-15.02,11.31-7.04,5.75,2.78,15.02-11.31,23.54-2.22,3.52-3.52,15.57.74,9.27-2.22,10.75-3.52,19.28-5.01,8.53-4.26,6.49,2.78,10.75,21.32-2.78,13.53-14.28,5.75-.74-3.52,14.28,9.27,15.02,10.01,7.04,7.04-12.79,15.02,19.28v11.31l-10.01,15.02,3.52,14.28,13.53,13.53v-.74h.19ZM269.56,488.14l-23.54,8.53-18.54-2.22.74-11.31-26.33,1.48-11.31-12.79-15.57-10.01-22.06,3.52-2.22-4.26-7.04,5.75-1.48,15.02,5.75,4.26,18.54,3.52,18.54,10.75-1.48,5.01-24.84,9.27-4.26,18.54,7.04,16.31,23.54,13.53,22.06-10.01,5.01,16.31,8.53,11.31h26.33l-10.75-17.8,15.02-8.53,12.05-13.53-2.78-15.02,15.02-13.53-5.75-24.29h0l-.19.19Z" fill="#e6e6e6" stroke="#ccc" stroke-miterlimit="3.9"/></g><g id="Stadt_Karlsruhe"><polygon id="polygon246" points="181.31 399.15 184.09 409.72 205.6 406.93 219.13 392.66 224.69 391.92 221.17 406.19 230.44 421.21 240.45 428.25 247.5 415.46 262.51 434.74 262.51 446.05 252.5 461.07 256.03 475.34 269.56 488.14 246.01 496.66 227.66 494.44 228.22 483.13 201.89 484.61 190.58 471.64 174.82 461.81 152.76 465.33 150.72 461.07 155.73 455.32 157.77 451.8 167.04 417.69 181.31 399.15" fill="#e6e6e6" stroke="#ccc" stroke-miterlimit="10"/><polygon id="polygon248" points="181.31 399.15 184.09 409.72 205.6 406.93 219.13 392.66 224.69 391.92 221.17 406.19 230.44 421.21 240.45 428.25 247.5 415.46 262.51 434.74 262.51 446.05 252.5 461.07 256.03 475.34 269.56 488.14 246.01 496.66 227.66 494.44 228.22 483.13 201.89 484.61 190.58 471.64 174.82 461.81 152.76 465.33 150.72 461.07 155.73 455.32 157.77 451.8 167.04 417.69 181.31 399.15" fill="#e6e6e6" stroke="#ccc" stroke-miterlimit="3.9"/></g><g id="Rastatt"><path id="path252" d="M143.68,466.82l-1.48,15.02,5.75,4.26,18.54,3.52,18.54,10.75-1.48,5.01-24.84,9.27-4.26,18.54,7.04,16.31,23.54,13.53,22.06-10.01,5.01,16.31-3.52,4.26-12.05-2.78-1.48,1.48,10.75,5.75,2.78,7.79-8.53,5.75,15.76,8.53,3.52,14.28-5.75,19.28,20.02-14.28,8.53,5.75-4.26,22.8-13.53,25.58-1.48,14.28-6.49,3.52-.74,11.31-10.01,2.78-9.27,1.48-2.78,12.05-12.79,11.31-17.8,10.01-26.33-1.48-17.06-10.01,11.31.74.74-4.26-7.04-2.22,4.26-8.53-5.75-5.01-11.31.74-2.22.74-26.33-20.58-12.79,4.26-5.01-3.52-13.53-12.05h-5.01l-15.02-7.04-5.01.74.74-4.26-13.53-1.48v-12.05l-13.53-9.27,5.01-24.29,29.11-22.8,15.02-.74,9.27-7.04,10.75-19.28,5.01-17.06,23.54-46.35,2.78-3.52,7.79-13.53,5.75-9.27,15.57-5.01,13.53-10.01h0ZM123.66,674.64l1.48,2.78,2.22,6.49,8.53-.74,8.53.74,21.32-26.33.74-2.04-2.22-20.58-15.57-17.8,4.26-5.75-.74-12.05-4.26,3.52-8.53-6.49-10.01-14.28-19.28-15.02-12.79,11.31-10.01,19.28,2.78,4.26,10.75,2.78,11.31,20.02-5.75,6.49-21.32.74-14.28,10.75,39.86,12.79,12.79,5.75v13.53h.19v-.19Z" fill="#e6e6e6" fill-rule="evenodd" stroke="#ccc" stroke-miterlimit="10"/><path id="path254" d="M143.68,466.82l-1.48,15.02,5.75,4.26,18.54,3.52,18.54,10.75-1.48,5.01-24.84,9.27-4.26,18.54,7.04,16.31,23.54,13.53,22.06-10.01,5.01,16.31-3.52,4.26-12.05-2.78-1.48,1.48,10.75,5.75,2.78,7.79-8.53,5.75,15.76,8.53,3.52,14.28-5.75,19.28,20.02-14.28,8.53,5.75-4.26,22.8-13.53,25.58-1.48,14.28-6.49,3.52-.74,11.31-10.01,2.78-9.27,1.48-2.78,12.05-12.79,11.31-17.8,10.01-26.33-1.48-17.06-10.01,11.31.74.74-4.26-7.04-2.22,4.26-8.53-5.75-5.01-11.31.74-2.22.74-26.33-20.58-12.79,4.26-5.01-3.52-13.53-12.05h-5.01l-15.02-7.04-5.01.74.74-4.26-13.53-1.48v-12.05l-13.53-9.27,5.01-24.29,29.11-22.8,15.02-.74,9.27-7.04,10.75-19.28,5.01-17.06,23.54-46.35,2.78-3.52,7.79-13.53,5.75-9.27,15.57-5.01,13.53-10.01h0ZM123.66,674.64l1.48,2.78,2.22,6.49,8.53-.74,8.53.74,21.32-26.33.74-2.04-2.22-20.58-15.57-17.8,4.26-5.75-.74-12.05-4.26,3.52-8.53-6.49-10.01-14.28-19.28-15.02-12.79,11.31-10.01,19.28,2.78,4.26,10.75,2.78,11.31,20.02-5.75,6.49-21.32.74-14.28,10.75,39.86,12.79,12.79,5.75v13.53h.19v-.19Z" fill="#e6e6e6" stroke="#ccc" stroke-miterlimit="3.9"/></g><g id="Baden-Baden"><polygon id="polygon258" points="123.66 674.64 125.14 677.42 127.18 683.91 135.71 683.17 144.23 683.91 165.74 657.58 166.3 655.36 164.26 634.78 148.5 616.98 152.76 611.24 152.21 599.19 147.94 602.71 139.23 596.22 129.4 582.13 110.12 567.11 97.33 578.42 87.32 597.7 90.1 601.97 100.85 604.93 112.35 624.77 106.6 631.26 85.28 631.81 71.01 642.57 110.86 655.36 123.66 661.11 123.66 674.64" fill="#e6e6e6" stroke="#ccc" stroke-miterlimit="10"/><polygon id="polygon260" points="123.66 674.64 125.14 677.42 127.18 683.91 135.71 683.17 144.23 683.91 165.74 657.58 166.3 655.36 164.26 634.78 148.5 616.98 152.76 611.24 152.21 599.19 147.94 602.71 139.23 596.22 129.4 582.13 110.12 567.11 97.33 578.42 87.32 597.7 90.1 601.97 100.85 604.93 112.35 624.77 106.6 631.26 85.28 631.81 71.01 642.57 110.86 655.36 123.66 661.11 123.66 674.64" fill="#e6e6e6" stroke="#ccc" stroke-miterlimit="3.9"/></g></svg>